<mxfile host="app.diagrams.net" modified="2023-05-09T14:31:27.736Z" agent="Mozilla/5.0 (Macintosh; Intel Mac OS X 10_15_7) AppleWebKit/537.36 (KHTML, like Gecko) Chrome/113.0.0.0 Safari/537.36" etag="7hAP8mbCJF_7woXbp06y" version="21.2.9" type="device">
  <diagram name="Page-1" id="o6dHNsjg2kj1J_DnNOP5">
    <mxGraphModel dx="2288" dy="936" grid="1" gridSize="10" guides="1" tooltips="1" connect="1" arrows="1" fold="1" page="1" pageScale="1" pageWidth="827" pageHeight="1169" math="0" shadow="0">
      <root>
        <mxCell id="0" />
        <mxCell id="1" parent="0" />
        <mxCell id="ygCZ_GDyCvPgRNHQDh9D-25" style="edgeStyle=orthogonalEdgeStyle;rounded=0;orthogonalLoop=1;jettySize=auto;html=1;entryX=0;entryY=0.5;entryDx=0;entryDy=0;endArrow=none;endFill=0;exitX=0.5;exitY=0;exitDx=0;exitDy=0;" parent="1" source="LJ5tFFDLq0XbdWrKc1V1-2" target="LJ5tFFDLq0XbdWrKc1V1-1" edge="1">
          <mxGeometry relative="1" as="geometry">
            <mxPoint x="-712.5" y="600.0000000000002" as="sourcePoint" />
            <mxPoint x="-597.1000000000001" y="341" as="targetPoint" />
          </mxGeometry>
        </mxCell>
        <mxCell id="zmVNwXwj6pydnJwBWUMn-149" value="apartine" style="edgeLabel;html=1;align=center;verticalAlign=middle;resizable=0;points=[];" parent="ygCZ_GDyCvPgRNHQDh9D-25" vertex="1" connectable="0">
          <mxGeometry x="-0.2255" y="1" relative="1" as="geometry">
            <mxPoint x="11" y="-17" as="offset" />
          </mxGeometry>
        </mxCell>
        <mxCell id="ygCZ_GDyCvPgRNHQDh9D-40" style="edgeStyle=orthogonalEdgeStyle;rounded=0;orthogonalLoop=1;jettySize=auto;html=1;entryX=0.5;entryY=1;entryDx=0;entryDy=0;endArrow=none;endFill=0;exitX=0.5;exitY=0;exitDx=0;exitDy=0;" parent="1" source="LJ5tFFDLq0XbdWrKc1V1-11" target="LJ5tFFDLq0XbdWrKc1V1-1" edge="1">
          <mxGeometry relative="1" as="geometry">
            <mxPoint x="-455" y="984" as="sourcePoint" />
            <mxPoint x="-456.45000000000005" y="380.2700000000002" as="targetPoint" />
          </mxGeometry>
        </mxCell>
        <mxCell id="zmVNwXwj6pydnJwBWUMn-151" value="are" style="edgeLabel;html=1;align=center;verticalAlign=middle;resizable=0;points=[];" parent="ygCZ_GDyCvPgRNHQDh9D-40" vertex="1" connectable="0">
          <mxGeometry x="-0.0641" y="-4" relative="1" as="geometry">
            <mxPoint x="-14" y="-15" as="offset" />
          </mxGeometry>
        </mxCell>
        <mxCell id="ygCZ_GDyCvPgRNHQDh9D-167" style="edgeStyle=orthogonalEdgeStyle;rounded=0;orthogonalLoop=1;jettySize=auto;html=1;exitX=0.5;exitY=1;exitDx=0;exitDy=0;endArrow=none;endFill=0;entryX=0;entryY=0.5;entryDx=0;entryDy=0;" parent="1" source="LJ5tFFDLq0XbdWrKc1V1-2" target="LJ5tFFDLq0XbdWrKc1V1-11" edge="1">
          <mxGeometry relative="1" as="geometry">
            <mxPoint x="-649.5900000000001" y="690.6300000000001" as="sourcePoint" />
            <mxPoint x="-567" y="1046" as="targetPoint" />
          </mxGeometry>
        </mxCell>
        <mxCell id="zmVNwXwj6pydnJwBWUMn-150" value="apartine" style="edgeLabel;html=1;align=center;verticalAlign=middle;resizable=0;points=[];" parent="ygCZ_GDyCvPgRNHQDh9D-167" vertex="1" connectable="0">
          <mxGeometry x="-0.1582" y="1" relative="1" as="geometry">
            <mxPoint x="9" y="11" as="offset" />
          </mxGeometry>
        </mxCell>
        <mxCell id="LJ5tFFDLq0XbdWrKc1V1-19" style="edgeStyle=orthogonalEdgeStyle;rounded=0;orthogonalLoop=1;jettySize=auto;html=1;exitX=1;exitY=0.5;exitDx=0;exitDy=0;entryX=0;entryY=0.5;entryDx=0;entryDy=0;endArrow=none;endFill=0;" edge="1" parent="1" source="LJ5tFFDLq0XbdWrKc1V1-1" target="LJ5tFFDLq0XbdWrKc1V1-15">
          <mxGeometry relative="1" as="geometry" />
        </mxCell>
        <mxCell id="LJ5tFFDLq0XbdWrKc1V1-62" value="apartine" style="edgeLabel;html=1;align=center;verticalAlign=middle;resizable=0;points=[];" vertex="1" connectable="0" parent="LJ5tFFDLq0XbdWrKc1V1-19">
          <mxGeometry x="-0.0174" y="1" relative="1" as="geometry">
            <mxPoint y="-9" as="offset" />
          </mxGeometry>
        </mxCell>
        <mxCell id="LJ5tFFDLq0XbdWrKc1V1-28" style="edgeStyle=orthogonalEdgeStyle;rounded=0;orthogonalLoop=1;jettySize=auto;html=1;exitX=0.75;exitY=1;exitDx=0;exitDy=0;entryX=0;entryY=0.25;entryDx=0;entryDy=0;endArrow=none;endFill=0;" edge="1" parent="1" source="LJ5tFFDLq0XbdWrKc1V1-1" target="LJ5tFFDLq0XbdWrKc1V1-13">
          <mxGeometry relative="1" as="geometry">
            <Array as="points">
              <mxPoint x="-150" y="1020" />
              <mxPoint x="-80" y="1020" />
              <mxPoint x="-80" y="1075" />
            </Array>
          </mxGeometry>
        </mxCell>
        <mxCell id="LJ5tFFDLq0XbdWrKc1V1-70" value="joaca" style="edgeLabel;html=1;align=center;verticalAlign=middle;resizable=0;points=[];" vertex="1" connectable="0" parent="LJ5tFFDLq0XbdWrKc1V1-28">
          <mxGeometry x="0.0738" y="2" relative="1" as="geometry">
            <mxPoint y="-8" as="offset" />
          </mxGeometry>
        </mxCell>
        <mxCell id="LJ5tFFDLq0XbdWrKc1V1-29" style="edgeStyle=orthogonalEdgeStyle;rounded=0;orthogonalLoop=1;jettySize=auto;html=1;exitX=1;exitY=0.75;exitDx=0;exitDy=0;endArrow=none;endFill=0;" edge="1" parent="1" source="LJ5tFFDLq0XbdWrKc1V1-1">
          <mxGeometry relative="1" as="geometry">
            <mxPoint x="230" y="960" as="targetPoint" />
          </mxGeometry>
        </mxCell>
        <mxCell id="LJ5tFFDLq0XbdWrKc1V1-64" value="joaca" style="edgeLabel;html=1;align=center;verticalAlign=middle;resizable=0;points=[];" vertex="1" connectable="0" parent="LJ5tFFDLq0XbdWrKc1V1-29">
          <mxGeometry x="-0.0244" relative="1" as="geometry">
            <mxPoint y="10" as="offset" />
          </mxGeometry>
        </mxCell>
        <mxCell id="LJ5tFFDLq0XbdWrKc1V1-1" value="PLAYERS" style="rounded=1;whiteSpace=wrap;html=1;" vertex="1" parent="1">
          <mxGeometry x="-240" y="800" width="120" height="60" as="geometry" />
        </mxCell>
        <mxCell id="LJ5tFFDLq0XbdWrKc1V1-2" value="REGIONS" style="rounded=1;whiteSpace=wrap;html=1;" vertex="1" parent="1">
          <mxGeometry x="-440" y="930" width="120" height="60" as="geometry" />
        </mxCell>
        <mxCell id="LJ5tFFDLq0XbdWrKc1V1-20" style="edgeStyle=orthogonalEdgeStyle;rounded=0;orthogonalLoop=1;jettySize=auto;html=1;exitX=0.5;exitY=1;exitDx=0;exitDy=0;entryX=0;entryY=0.5;entryDx=0;entryDy=0;endArrow=none;endFill=0;" edge="1" parent="1" source="LJ5tFFDLq0XbdWrKc1V1-11" target="LJ5tFFDLq0XbdWrKc1V1-12">
          <mxGeometry relative="1" as="geometry" />
        </mxCell>
        <mxCell id="LJ5tFFDLq0XbdWrKc1V1-69" value="are" style="edgeLabel;html=1;align=center;verticalAlign=middle;resizable=0;points=[];" vertex="1" connectable="0" parent="LJ5tFFDLq0XbdWrKc1V1-20">
          <mxGeometry x="-0.0126" y="-3" relative="1" as="geometry">
            <mxPoint x="-18" y="7" as="offset" />
          </mxGeometry>
        </mxCell>
        <mxCell id="LJ5tFFDLq0XbdWrKc1V1-21" style="edgeStyle=orthogonalEdgeStyle;rounded=0;orthogonalLoop=1;jettySize=auto;html=1;exitX=1;exitY=0.5;exitDx=0;exitDy=0;entryX=0;entryY=0.5;entryDx=0;entryDy=0;endArrow=none;endFill=0;" edge="1" parent="1" source="LJ5tFFDLq0XbdWrKc1V1-11" target="LJ5tFFDLq0XbdWrKc1V1-13">
          <mxGeometry relative="1" as="geometry" />
        </mxCell>
        <mxCell id="LJ5tFFDLq0XbdWrKc1V1-73" value="are" style="edgeLabel;html=1;align=center;verticalAlign=middle;resizable=0;points=[];" vertex="1" connectable="0" parent="LJ5tFFDLq0XbdWrKc1V1-21">
          <mxGeometry x="0.0211" relative="1" as="geometry">
            <mxPoint y="10" as="offset" />
          </mxGeometry>
        </mxCell>
        <mxCell id="LJ5tFFDLq0XbdWrKc1V1-11" value="TEAMS" style="rounded=1;whiteSpace=wrap;html=1;" vertex="1" parent="1">
          <mxGeometry x="-240" y="1060" width="120" height="60" as="geometry" />
        </mxCell>
        <mxCell id="LJ5tFFDLq0XbdWrKc1V1-17" style="edgeStyle=orthogonalEdgeStyle;rounded=0;orthogonalLoop=1;jettySize=auto;html=1;exitX=0.5;exitY=0;exitDx=0;exitDy=0;entryX=0.5;entryY=1;entryDx=0;entryDy=0;endArrow=none;endFill=0;" edge="1" parent="1" source="LJ5tFFDLq0XbdWrKc1V1-12" target="LJ5tFFDLq0XbdWrKc1V1-13">
          <mxGeometry relative="1" as="geometry" />
        </mxCell>
        <mxCell id="LJ5tFFDLq0XbdWrKc1V1-68" value="are" style="edgeLabel;html=1;align=center;verticalAlign=middle;resizable=0;points=[];" vertex="1" connectable="0" parent="LJ5tFFDLq0XbdWrKc1V1-17">
          <mxGeometry x="-0.0386" y="-3" relative="1" as="geometry">
            <mxPoint x="12" y="2" as="offset" />
          </mxGeometry>
        </mxCell>
        <mxCell id="LJ5tFFDLq0XbdWrKc1V1-12" value="MATCH_RESULT" style="rounded=1;whiteSpace=wrap;html=1;" vertex="1" parent="1">
          <mxGeometry y="1210" width="120" height="60" as="geometry" />
        </mxCell>
        <mxCell id="LJ5tFFDLq0XbdWrKc1V1-22" style="edgeStyle=orthogonalEdgeStyle;rounded=0;orthogonalLoop=1;jettySize=auto;html=1;exitX=1;exitY=0.5;exitDx=0;exitDy=0;entryX=0.5;entryY=1;entryDx=0;entryDy=0;endArrow=none;endFill=0;" edge="1" parent="1" source="LJ5tFFDLq0XbdWrKc1V1-13" target="LJ5tFFDLq0XbdWrKc1V1-14">
          <mxGeometry relative="1" as="geometry" />
        </mxCell>
        <mxCell id="LJ5tFFDLq0XbdWrKc1V1-67" value="sunt_banati" style="edgeLabel;html=1;align=center;verticalAlign=middle;resizable=0;points=[];" vertex="1" connectable="0" parent="LJ5tFFDLq0XbdWrKc1V1-22">
          <mxGeometry x="0.2061" y="-1" relative="1" as="geometry">
            <mxPoint y="9" as="offset" />
          </mxGeometry>
        </mxCell>
        <mxCell id="LJ5tFFDLq0XbdWrKc1V1-30" style="edgeStyle=orthogonalEdgeStyle;rounded=0;orthogonalLoop=1;jettySize=auto;html=1;exitX=1;exitY=0.25;exitDx=0;exitDy=0;endArrow=none;endFill=0;" edge="1" parent="1" source="LJ5tFFDLq0XbdWrKc1V1-13">
          <mxGeometry relative="1" as="geometry">
            <mxPoint x="230" y="960" as="targetPoint" />
          </mxGeometry>
        </mxCell>
        <mxCell id="LJ5tFFDLq0XbdWrKc1V1-66" value="participa" style="edgeLabel;html=1;align=center;verticalAlign=middle;resizable=0;points=[];" vertex="1" connectable="0" parent="LJ5tFFDLq0XbdWrKc1V1-30">
          <mxGeometry x="0.2216" y="-1" relative="1" as="geometry">
            <mxPoint x="29" y="2" as="offset" />
          </mxGeometry>
        </mxCell>
        <mxCell id="LJ5tFFDLq0XbdWrKc1V1-13" value="MATCHES" style="rounded=1;whiteSpace=wrap;html=1;" vertex="1" parent="1">
          <mxGeometry y="1060" width="120" height="60" as="geometry" />
        </mxCell>
        <mxCell id="LJ5tFFDLq0XbdWrKc1V1-31" style="edgeStyle=orthogonalEdgeStyle;rounded=0;orthogonalLoop=1;jettySize=auto;html=1;exitX=0;exitY=0.5;exitDx=0;exitDy=0;endArrow=none;endFill=0;" edge="1" parent="1" source="LJ5tFFDLq0XbdWrKc1V1-14">
          <mxGeometry relative="1" as="geometry">
            <mxPoint x="230" y="960.1739130434785" as="targetPoint" />
          </mxGeometry>
        </mxCell>
        <mxCell id="LJ5tFFDLq0XbdWrKc1V1-65" value="este_ales" style="edgeLabel;html=1;align=center;verticalAlign=middle;resizable=0;points=[];" vertex="1" connectable="0" parent="LJ5tFFDLq0XbdWrKc1V1-31">
          <mxGeometry x="0.1407" relative="1" as="geometry">
            <mxPoint y="-11" as="offset" />
          </mxGeometry>
        </mxCell>
        <mxCell id="LJ5tFFDLq0XbdWrKc1V1-14" value="CHAMPIONS" style="rounded=1;whiteSpace=wrap;html=1;" vertex="1" parent="1">
          <mxGeometry x="340" y="930" width="120" height="60" as="geometry" />
        </mxCell>
        <mxCell id="LJ5tFFDLq0XbdWrKc1V1-23" style="edgeStyle=orthogonalEdgeStyle;rounded=0;orthogonalLoop=1;jettySize=auto;html=1;exitX=0.5;exitY=1;exitDx=0;exitDy=0;entryX=0.5;entryY=0;entryDx=0;entryDy=0;endArrow=none;endFill=0;" edge="1" parent="1" source="LJ5tFFDLq0XbdWrKc1V1-15" target="LJ5tFFDLq0XbdWrKc1V1-14">
          <mxGeometry relative="1" as="geometry" />
        </mxCell>
        <mxCell id="LJ5tFFDLq0XbdWrKc1V1-71" value="apartine" style="edgeLabel;html=1;align=center;verticalAlign=middle;resizable=0;points=[];" vertex="1" connectable="0" parent="LJ5tFFDLq0XbdWrKc1V1-23">
          <mxGeometry x="0.0157" relative="1" as="geometry">
            <mxPoint x="-30" as="offset" />
          </mxGeometry>
        </mxCell>
        <mxCell id="LJ5tFFDLq0XbdWrKc1V1-15" value="ROLES" style="rounded=1;whiteSpace=wrap;html=1;" vertex="1" parent="1">
          <mxGeometry x="340" y="800" width="120" height="60" as="geometry" />
        </mxCell>
        <mxCell id="LJ5tFFDLq0XbdWrKc1V1-18" style="edgeStyle=orthogonalEdgeStyle;rounded=0;orthogonalLoop=1;jettySize=auto;html=1;exitX=0.5;exitY=1;exitDx=0;exitDy=0;entryX=0.5;entryY=0;entryDx=0;entryDy=0;endArrow=none;endFill=0;" edge="1" parent="1" source="LJ5tFFDLq0XbdWrKc1V1-16" target="LJ5tFFDLq0XbdWrKc1V1-13">
          <mxGeometry relative="1" as="geometry" />
        </mxCell>
        <mxCell id="LJ5tFFDLq0XbdWrKc1V1-72" value="apartine" style="edgeLabel;html=1;align=center;verticalAlign=middle;resizable=0;points=[];" vertex="1" connectable="0" parent="LJ5tFFDLq0XbdWrKc1V1-18">
          <mxGeometry x="-0.0576" y="1" relative="1" as="geometry">
            <mxPoint x="-31" y="-3" as="offset" />
          </mxGeometry>
        </mxCell>
        <mxCell id="LJ5tFFDLq0XbdWrKc1V1-16" value="TOURNAMENTS" style="rounded=1;whiteSpace=wrap;html=1;" vertex="1" parent="1">
          <mxGeometry y="930" width="120" height="60" as="geometry" />
        </mxCell>
        <mxCell id="LJ5tFFDLq0XbdWrKc1V1-33" value="1" style="text;html=1;align=center;verticalAlign=middle;resizable=0;points=[];autosize=1;strokeColor=none;fillColor=none;" vertex="1" parent="1">
          <mxGeometry x="-413" y="990" width="30" height="30" as="geometry" />
        </mxCell>
        <mxCell id="LJ5tFFDLq0XbdWrKc1V1-34" value="M" style="text;html=1;strokeColor=none;fillColor=none;align=center;verticalAlign=middle;whiteSpace=wrap;rounded=0;" vertex="1" parent="1">
          <mxGeometry x="-270" y="800" width="30" height="30" as="geometry" />
        </mxCell>
        <mxCell id="LJ5tFFDLq0XbdWrKc1V1-35" value="1" style="text;html=1;align=center;verticalAlign=middle;resizable=0;points=[];autosize=1;strokeColor=none;fillColor=none;" vertex="1" parent="1">
          <mxGeometry x="-413" y="900" width="30" height="30" as="geometry" />
        </mxCell>
        <mxCell id="LJ5tFFDLq0XbdWrKc1V1-36" value="M" style="text;html=1;strokeColor=none;fillColor=none;align=center;verticalAlign=middle;whiteSpace=wrap;rounded=0;" vertex="1" parent="1">
          <mxGeometry x="-270" y="1090" width="30" height="30" as="geometry" />
        </mxCell>
        <mxCell id="LJ5tFFDLq0XbdWrKc1V1-37" value="1" style="text;html=1;align=center;verticalAlign=middle;resizable=0;points=[];autosize=1;strokeColor=none;fillColor=none;" vertex="1" parent="1">
          <mxGeometry x="-210" y="1030" width="30" height="30" as="geometry" />
        </mxCell>
        <mxCell id="LJ5tFFDLq0XbdWrKc1V1-38" value="M" style="text;html=1;strokeColor=none;fillColor=none;align=center;verticalAlign=middle;whiteSpace=wrap;rounded=0;" vertex="1" parent="1">
          <mxGeometry x="-210" y="860" width="30" height="30" as="geometry" />
        </mxCell>
        <mxCell id="LJ5tFFDLq0XbdWrKc1V1-39" value="2" style="text;html=1;align=center;verticalAlign=middle;resizable=0;points=[];autosize=1;strokeColor=none;fillColor=none;" vertex="1" parent="1">
          <mxGeometry x="-120" y="1090" width="30" height="30" as="geometry" />
        </mxCell>
        <mxCell id="LJ5tFFDLq0XbdWrKc1V1-40" value="M" style="text;html=1;strokeColor=none;fillColor=none;align=center;verticalAlign=middle;whiteSpace=wrap;rounded=0;" vertex="1" parent="1">
          <mxGeometry x="-30" y="1090" width="30" height="30" as="geometry" />
        </mxCell>
        <mxCell id="LJ5tFFDLq0XbdWrKc1V1-42" value="M" style="text;html=1;strokeColor=none;fillColor=none;align=center;verticalAlign=middle;whiteSpace=wrap;rounded=0;" vertex="1" parent="1">
          <mxGeometry x="-150" y="860" width="30" height="30" as="geometry" />
        </mxCell>
        <mxCell id="LJ5tFFDLq0XbdWrKc1V1-43" value="M" style="text;html=1;strokeColor=none;fillColor=none;align=center;verticalAlign=middle;whiteSpace=wrap;rounded=0;" vertex="1" parent="1">
          <mxGeometry x="-30" y="1050" width="30" height="30" as="geometry" />
        </mxCell>
        <mxCell id="LJ5tFFDLq0XbdWrKc1V1-44" value="M" style="text;html=1;strokeColor=none;fillColor=none;align=center;verticalAlign=middle;whiteSpace=wrap;rounded=0;" vertex="1" parent="1">
          <mxGeometry x="-120" y="840" width="30" height="30" as="geometry" />
        </mxCell>
        <mxCell id="LJ5tFFDLq0XbdWrKc1V1-45" value="M" style="text;html=1;strokeColor=none;fillColor=none;align=center;verticalAlign=middle;whiteSpace=wrap;rounded=0;" vertex="1" parent="1">
          <mxGeometry x="310" y="960" width="30" height="30" as="geometry" />
        </mxCell>
        <mxCell id="LJ5tFFDLq0XbdWrKc1V1-46" value="M" style="text;html=1;strokeColor=none;fillColor=none;align=center;verticalAlign=middle;whiteSpace=wrap;rounded=0;" vertex="1" parent="1">
          <mxGeometry x="120" y="1050" width="30" height="30" as="geometry" />
        </mxCell>
        <mxCell id="LJ5tFFDLq0XbdWrKc1V1-47" value="M" style="text;html=1;strokeColor=none;fillColor=none;align=center;verticalAlign=middle;whiteSpace=wrap;rounded=0;" vertex="1" parent="1">
          <mxGeometry x="399" y="990" width="30" height="30" as="geometry" />
        </mxCell>
        <mxCell id="LJ5tFFDLq0XbdWrKc1V1-48" value="M" style="text;html=1;strokeColor=none;fillColor=none;align=center;verticalAlign=middle;whiteSpace=wrap;rounded=0;" vertex="1" parent="1">
          <mxGeometry x="120" y="1090" width="30" height="30" as="geometry" />
        </mxCell>
        <mxCell id="LJ5tFFDLq0XbdWrKc1V1-49" value="M" style="text;html=1;strokeColor=none;fillColor=none;align=center;verticalAlign=middle;whiteSpace=wrap;rounded=0;" vertex="1" parent="1">
          <mxGeometry x="399" y="900" width="30" height="30" as="geometry" />
        </mxCell>
        <mxCell id="LJ5tFFDLq0XbdWrKc1V1-50" value="M" style="text;html=1;strokeColor=none;fillColor=none;align=center;verticalAlign=middle;whiteSpace=wrap;rounded=0;" vertex="1" parent="1">
          <mxGeometry x="-120" y="800" width="30" height="30" as="geometry" />
        </mxCell>
        <mxCell id="LJ5tFFDLq0XbdWrKc1V1-52" value="M" style="text;html=1;strokeColor=none;fillColor=none;align=center;verticalAlign=middle;whiteSpace=wrap;rounded=0;" vertex="1" parent="1">
          <mxGeometry x="-30" y="1210" width="30" height="30" as="geometry" />
        </mxCell>
        <mxCell id="LJ5tFFDLq0XbdWrKc1V1-54" value="1" style="text;html=1;align=center;verticalAlign=middle;resizable=0;points=[];autosize=1;strokeColor=none;fillColor=none;" vertex="1" parent="1">
          <mxGeometry x="60" y="1180" width="30" height="30" as="geometry" />
        </mxCell>
        <mxCell id="LJ5tFFDLq0XbdWrKc1V1-55" value="1" style="text;html=1;align=center;verticalAlign=middle;resizable=0;points=[];autosize=1;strokeColor=none;fillColor=none;" vertex="1" parent="1">
          <mxGeometry x="60" y="1120" width="30" height="30" as="geometry" />
        </mxCell>
        <mxCell id="LJ5tFFDLq0XbdWrKc1V1-56" value="1" style="text;html=1;align=center;verticalAlign=middle;resizable=0;points=[];autosize=1;strokeColor=none;fillColor=none;" vertex="1" parent="1">
          <mxGeometry x="-180" y="1120" width="30" height="30" as="geometry" />
        </mxCell>
        <mxCell id="LJ5tFFDLq0XbdWrKc1V1-57" value="1" style="text;html=1;align=center;verticalAlign=middle;resizable=0;points=[];autosize=1;strokeColor=none;fillColor=none;" vertex="1" parent="1">
          <mxGeometry x="310" y="800" width="30" height="30" as="geometry" />
        </mxCell>
        <mxCell id="LJ5tFFDLq0XbdWrKc1V1-59" value="1" style="text;html=1;align=center;verticalAlign=middle;resizable=0;points=[];autosize=1;strokeColor=none;fillColor=none;" vertex="1" parent="1">
          <mxGeometry x="399" y="860" width="30" height="30" as="geometry" />
        </mxCell>
        <mxCell id="LJ5tFFDLq0XbdWrKc1V1-60" value="M" style="text;html=1;strokeColor=none;fillColor=none;align=center;verticalAlign=middle;whiteSpace=wrap;rounded=0;" vertex="1" parent="1">
          <mxGeometry x="60" y="1030" width="30" height="30" as="geometry" />
        </mxCell>
        <mxCell id="LJ5tFFDLq0XbdWrKc1V1-61" value="1" style="text;html=1;align=center;verticalAlign=middle;resizable=0;points=[];autosize=1;strokeColor=none;fillColor=none;" vertex="1" parent="1">
          <mxGeometry x="60" y="990" width="30" height="30" as="geometry" />
        </mxCell>
      </root>
    </mxGraphModel>
  </diagram>
</mxfile>
